<svg viewBox="0 0 50 50" version="1.1" xmlns="http://www.w3.org/2000/svg" desc="Created on https://convert2svg.com/" ><path fill="rgb(0,0,0)" stroke="rgb(0,0,0)" stroke-width="1" opacity="0" d="M 0 0 L 50 0 L 50 50 L 0 50 L 0 0 Z M 7 2 L 7 48 L 43 48 L 43 2 L 7 2 Z " /><path fill="rgb(0,0,0)" stroke="rgb(0,0,0)" stroke-width="1" opacity="0" d="M 9 4 L 41 4 L 41 46 L 9 46 L 9 4 Z M 15 8 L 16 15 L 15 15 L 13 18 L 22 18 L 22 17 L 20 15 L 20 14 Q 23 5 15 8 Z M 26 10 L 27 12 L 37 12 L 37 10 L 26 10 Z M 26 15 L 27 17 L 37 17 L 37 15 L 26 15 Z M 12 25 L 13 27 L 29 27 L 29 25 L 12 25 Z M 31 25 L 31 27 L 37 27 L 37 25 L 31 25 Z M 12 31 L 13 33 L 26 33 L 26 31 L 12 31 Z M 31 31 L 31 33 L 37 33 L 37 31 L 31 31 Z M 12 37 L 13 39 L 29 39 L 29 37 L 12 37 Z M 31 37 L 31 39 L 37 39 L 37 37 L 31 37 Z " /><path fill="rgb(143,157,165)" stroke="rgb(143,157,165)" stroke-width="1" opacity="0.9294117647058824" d="M 7 2 L 43 2 L 43 48 L 7 48 L 7 2 Z M 9 4 L 9 46 L 41 46 L 41 4 L 9 4 Z " /><path fill="rgb(143,157,165)" stroke="rgb(143,157,165)" stroke-width="1" opacity="0.9294117647058824" d="M 15 8 Q 22.5 5.3 20 13.5 L 19.5 15 L 22 16.5 L 21.5 18 L 13 18 L 14.5 15 L 16 14.5 L 15 8 Z " /><path fill="rgb(143,157,165)" stroke="rgb(143,157,165)" stroke-width="1" opacity="0.9294117647058824" d="M 26 10 L 36.5 10 L 37 12 L 26.5 12 L 26 10 Z " /><path fill="rgb(143,157,165)" stroke="rgb(143,157,165)" stroke-width="1" opacity="0.9294117647058824" d="M 26 15 L 36.5 15 L 37 17 L 26.5 17 L 26 15 Z " /><path fill="rgb(143,157,165)" stroke="rgb(143,157,165)" stroke-width="1" opacity="0.9294117647058824" d="M 12 25 L 28.5 25 L 29 27 L 12.5 27 L 12 25 Z " /><path fill="rgb(143,157,165)" stroke="rgb(143,157,165)" stroke-width="1" opacity="0.9294117647058824" d="M 31 25 L 37 25 L 37 27 L 31 27 L 31 25 Z " /><path fill="rgb(143,157,165)" stroke="rgb(143,157,165)" stroke-width="1" opacity="0.9294117647058824" d="M 12 31 L 25.5 31 L 26 33 L 12.5 33 L 12 31 Z " /><path fill="rgb(143,157,165)" stroke="rgb(143,157,165)" stroke-width="1" opacity="0.9294117647058824" d="M 31 31 L 37 31 L 37 33 L 31 33 L 31 31 Z " /><path fill="rgb(143,157,165)" stroke="rgb(143,157,165)" stroke-width="1" opacity="0.9294117647058824" d="M 12 37 L 28.5 37 L 29 39 L 12.5 39 L 12 37 Z " /><path fill="rgb(143,157,165)" stroke="rgb(143,157,165)" stroke-width="1" opacity="0.9294117647058824" d="M 31 37 L 37 37 L 37 39 L 31 39 L 31 37 Z " /></svg>